<svg xmlns="http://www.w3.org/2000/svg" viewBox="0 0 100 100" width="100" height="100">
  <!-- Background circle with gradient -->
  <defs>
    <linearGradient id="bgGradient" x1="0%" y1="0%" x2="100%" y2="100%">
      <stop offset="0%" style="stop-color:#6366f1;stop-opacity:1" />
      <stop offset="100%" style="stop-color:#8b5cf6;stop-opacity:1" />
    </linearGradient>
  </defs>
  
  <!-- Background circle -->
  <circle cx="50" cy="50" r="48" fill="url(#bgGradient)" stroke="none"/>
  
  <!-- Book spine/binding - Trapezoidal and scaled -->
  <path d="M29 24 L36 23 L36 77 L29 76 Z" fill="#f59e0b" opacity="0.8"/>
  
  <!-- Abstract book page shape - Scaled, centered, with perspective -->
  <path d="M36 23 L36 77 L70 73 L70 27 Z" fill="#ffffff" opacity="0.95"/>
  
  <!-- Mountain Range Doodle (Patagonia style) - Background Layer (Light Gray) - More peaks, moved up -->
  <path d="M38 65 Q42 40 46 50 Q50 40 54 50 Q58 55 62 45 Q66 50 68 65 Z" fill="#c0c0c0" stroke="none"/>

  <!-- Mountain Range Doodle (Patagonia style) - Foreground Layer (Darker Gray) - Shorter with distinct peaks, strictly aligned bottom -->
  <path d="M38 65 Q42 52 46 60 Q50 50 54 60 Q58 65 62 55 Q66 60 68 65 Z" fill="#808080" stroke="none"/>

</svg> 